{
  "accessors": [
    {
      "bufferView": 2,
      "componentType": 5126,
      "count": 16877,
      "max": [
        25.299999237060547,
        23.678489685058594,
        0.2469482421875
      ],
      "min": [
        -36.149681091308594,
        -1.0241676568984985,
        -45.12740707397461
      ],
      "type": "VEC3"
    },
    {
      "bufferView": 2,
      "byteOffset": 202524,
      "componentType": 5126,
      "count": 16877,
      "max": [
        1.0,
        1.0,
        1.0
      ],
      "min": [
        -1.0,
        -1.0,
        -1.0
      ],
      "type": "VEC3"
    },
    {
      "bufferView": 1,
      "componentType": 5126,
      "count": 16877,
      "max": [
        0.984886884689331,
        0.9769721627235413
      ],
      "min": [
        0.028595101088285446,
        0.023658037185668945
      ],
      "type": "VEC2"
    },
    {
      "bufferView": 0,
      "componentType": 5125,
      "count": 25893,
      "type": "SCALAR"
    },
    {
      "bufferView": 2,
      "byteOffset": 405048,
      "componentType": 5126,
      "count": 65533,
      "max": [
        16.28471565246582,
        28.229259490966797,
        2.326150894165039
      ],
      "min": [
        -7.477921485900879,
        -9.14990520477295,
        -9.047344207763672
      ],
      "type": "VEC3"
    },
    {
      "bufferView": 2,
      "byteOffset": 1191444,
      "componentType": 5126,
      "count": 65533,
      "max": [
        1.0,
        1.0,
        1.0
      ],
      "min": [
        -1.0,
        -1.0,
        -1.0
      ],
      "type": "VEC3"
    },
    {
      "bufferView": 1,
      "byteOffset": 135016,
      "componentType": 5126,
      "count": 65533,
      "max": [
        0.9469380378723145,
        0.9886118173599243
      ],
      "min": [
        0.016611427068710327,
        0.02503225766122341
      ],
      "type": "VEC2"
    },
    {
      "bufferView": 0,
      "byteOffset": 103572,
      "componentType": 5125,
      "count": 99663,
      "type": "SCALAR"
    },
    {
      "bufferView": 2,
      "byteOffset": 1977840,
      "componentType": 5126,
      "count": 60685,
      "max": [
        15.93566608428955,
        28.807994842529297,
        2.118337631225586
      ],
      "min": [
        -9.120387077331543,
        -8.025094985961914,
        -9.01004695892334
      ],
      "type": "VEC3"
    },
    {
      "bufferView": 2,
      "byteOffset": 2706060,
      "componentType": 5126,
      "count": 60685,
      "max": [
        1.0,
        1.0,
        1.0
      ],
      "min": [
        -1.0,
        -1.0,
        -1.0
      ],
      "type": "VEC3"
    },
    {
      "bufferView": 1,
      "byteOffset": 659280,
      "componentType": 5126,
      "count": 60685,
      "max": [
        0.9593404531478882,
        0.9724645614624023
      ],
      "min": [
        0.016611427068710327,
        0.13270440697669983
      ],
      "type": "VEC2"
    },
    {
      "bufferView": 0,
      "byteOffset": 502224,
      "componentType": 5125,
      "count": 91311,
      "type": "SCALAR"
    }
  ],
  "asset": {
    "extras": {
      "author": "Artist286b (https://sketchfab.com/Artist286b)",
      "license": "SKETCHFAB Standard (https://sketchfab.com/licenses)",
      "source": "https://sketchfab.com/3d-models/factory-b0e0d51ea6da458faf9d554e47722497",
      "title": "Factory"
    },
    "generator": "Sketchfab-12.68.0",
    "version": "2.0"
  },
  "bufferViews": [
    {
      "buffer": 0,
      "byteLength": 867468,
      "name": "floatBufferViews",
      "target": 34963
    },
    {
      "buffer": 0,
      "byteLength": 1144760,
      "byteOffset": 867468,
      "byteStride": 8,
      "name": "floatBufferViews",
      "target": 34962
    },
    {
      "buffer": 0,
      "byteLength": 3434280,
      "byteOffset": 2012228,
      "byteStride": 12,
      "name": "floatBufferViews",
      "target": 34962
    }
  ],
  "buffers": [
    {
      "byteLength": 5446508,
      "uri": "scene.bin"
    }
  ],
  "images": [
    {
      "uri": "textures/factory_texture_1_baseColor.png"
    },
    {
      "uri": "textures/factory_texture_2_baseColor.png"
    }
  ],
  "materials": [
    {
      "doubleSided": true,
      "name": "factory_texture_1",
      "pbrMetallicRoughness": {
        "baseColorTexture": {
          "index": 0
        },
        "metallicFactor": 0.0,
        "roughnessFactor": 0.340909
      }
    },
    {
      "doubleSided": true,
      "name": "factory_texture_2",
      "pbrMetallicRoughness": {
        "baseColorTexture": {
          "index": 1
        },
        "metallicFactor": 0.300758,
        "roughnessFactor": 0.247727
      }
    }
  ],
  "meshes": [
    {
      "name": "Object_0",
      "primitives": [
        {
          "attributes": {
            "NORMAL": 1,
            "POSITION": 0,
            "TEXCOORD_0": 2
          },
          "indices": 3,
          "material": 0,
          "mode": 4
        }
      ]
    },
    {
      "name": "Object_1",
      "primitives": [
        {
          "attributes": {
            "NORMAL": 5,
            "POSITION": 4,
            "TEXCOORD_0": 6
          },
          "indices": 7,
          "material": 1,
          "mode": 4
        }
      ]
    },
    {
      "name": "Object_2",
      "primitives": [
        {
          "attributes": {
            "NORMAL": 9,
            "POSITION": 8,
            "TEXCOORD_0": 10
          },
          "indices": 11,
          "material": 1,
          "mode": 4
        }
      ]
    }
  ],
  "nodes": [
    {
      "children": [
        1
      ],
      "matrix": [
        1.0,
        0.0,
        0.0,
        0.0,
        0.0,
        2.220446049250313e-16,
        -1.0,
        0.0,
        0.0,
        1.0,
        2.220446049250313e-16,
        0.0,
        0.0,
        0.0,
        0.0,
        1.0
      ],
      "name": "Sketchfab_model"
    },
    {
      "children": [
        2
      ],
      "name": "root"
    },
    {
      "children": [
        3,
        5
      ],
      "matrix": [
        1.0,
        0.0,
        0.0,
        0.0,
        0.0,
        2.220446049250313e-16,
        1.0,
        0.0,
        0.0,
        -1.0,
        2.220446049250313e-16,
        0.0,
        0.0,
        0.0,
        0.0,
        1.0
      ],
      "name": "GLTF_SceneRootNode"
    },
    {
      "children": [
        4
      ],
      "matrix": [
        1.0,
        0.0,
        0.0,
        0.0,
        0.0,
        1.0,
        0.0,
        0.0,
        0.0,
        0.0,
        1.0,
        0.0,
        0.0,
        1.0,
        15.863639831542969,
        1.0
      ],
      "name": "walls and roofs_1"
    },
    {
      "mesh": 0,
      "name": "Object_4"
    },
    {
      "children": [
        6,
        7
      ],
      "matrix": [
        -1.0759501171063337e-07,
        -6.455699516203161e-07,
        1.8051444292067296,
        0.0,
        1.8051444292068417,
        -1.0759501171063337e-07,
        1.0759497323166554e-07,
        0.0,
        1.0759497323166554e-07,
        1.8051444292067296,
        6.455699580334774e-07,
        0.0,
        -26.452590942382813,
        16.264432907104492,
        -12.787506103515625,
        1.0
      ],
      "name": "windows pipes other_2"
    },
    {
      "mesh": 1,
      "name": "Object_6"
    },
    {
      "mesh": 2,
      "name": "Object_7"
    }
  ],
  "samplers": [
    {
      "magFilter": 9729,
      "minFilter": 9987,
      "wrapS": 10497,
      "wrapT": 10497
    }
  ],
  "scene": 0,
  "scenes": [
    {
      "name": "Sketchfab_Scene",
      "nodes": [
        0
      ]
    }
  ],
  "textures": [
    {
      "sampler": 0,
      "source": 0
    },
    {
      "sampler": 0,
      "source": 1
    }
  ]
}
